EMG
version=1
nRows=20
nColumns=17
inDegrees=no
endheader
time	_right_gast_med	_right_glut_max	_left_gast_med	_left_glut_max	_right_glut_med	_right_bic_fem	_right_rect_fem	_right_vast_lat	_right_vast_med	_right_tens_fasc_lat	_left_glut_med	_left_bic_fem	_left_rect_fem	_left_vast_lat	_left_vast_med	_left_tens_fasc_lat
      1.19000000	     -1.10938299	      0.07771158	     -0.00781925	      0.06841654	     -0.01603406	      0.04209675	      0.00753103	      0.08855292	     -0.01551947	     -0.02247731	      0.00024303	     -0.01187477	      0.01556714	      0.04257572	     -0.05323862	      0.00256499
      1.20000000	      0.27225846	      0.05048377	     -0.02666233	     -0.18520553	     -0.00958159	      0.05116413	      0.00186193	      0.06138419	     -0.00646739	      0.01368382	      0.00504784	     -0.00963485	      0.00940939	      0.06190078	     -0.06871368	      0.00559293
      1.21000000	      1.82532537	     -0.06274109	     -0.01609152	     -0.21529590	      0.00411134	      0.03748409	     -0.01952361	     -0.00863194	      0.01199134	      0.02388345	      0.00763339	     -0.01835645	      0.00950526	      0.02584441	     -0.07732249	      0.05148768
      1.22000000	      0.46436897	     -0.09384671	      0.02600974	      0.15087923	      0.01473701	     -0.00812747	     -0.01498529	     -0.00546347	     -0.03247520	      0.02435318	      0.00716748	     -0.04490220	      0.01343985	     -0.03826134	     -0.04851275	      0.07839534
      1.23000000	     -0.55632883	     -0.01046331	      0.05105529	      0.08647122	      0.01355159	     -0.02334318	     -0.00149162	     -0.01527330	     -0.10954443	      0.01438849	      0.00800300	     -0.06898016	      0.01097346	     -0.04880610	      0.01042195	      0.08014983
      1.24000000	     -0.15424177	      0.03197316	      0.05493527	     -0.15011595	     -0.00022161	      0.00574814	      0.00810307	     -0.02439567	     -0.12230545	      0.02626584	      0.00320109	     -0.04244601	     -0.00636683	     -0.00481217	      0.00650122	      0.04758271
      1.25000000	      0.29062548	      0.08689719	      0.03943105	     -0.15700173	     -0.01743228	      0.00529023	      0.02341270	     -0.01325740	     -0.05542464	      0.04740226	      0.00472778	      0.02929305	     -0.00532584	      0.03748368	      0.01582753	      0.00955006
      1.26000000	     -1.05643415	      0.13050595	      0.00269624	     -0.17527461	     -0.02700217	      0.00245164	      0.02992365	      0.01365222	      0.02923628	      0.03665127	      0.01226598	      0.09009181	      0.01602146	      0.06101986	      0.05128263	     -0.02327914
      1.27000000	     -1.12559986	      0.06919834	     -0.01822850	     -0.18417142	     -0.02752486	      0.01841345	      0.01350837	      0.02015581	      0.07407987	      0.00812515	      0.02170497	      0.10760354	      0.02291138	      0.04757557	      0.05893740	     -0.05049694
      1.28000000	      1.43512058	     -0.02736958	     -0.01439064	     -0.01454704	     -0.01223979	      0.02073665	     -0.00199855	      0.02246982	      0.05808197	     -0.00752732	      0.02483894	      0.08566166	      0.01378181	      0.01533431	      0.02732531	     -0.05562792
      1.29000000	      1.46228695	     -0.00632097	      0.00919900	      0.10496146	      0.00755261	      0.01936762	      0.00040546	      0.02957206	      0.01021709	     -0.00315980	      0.02268443	      0.05687841	      0.00184494	     -0.00678638	     -0.00235130	     -0.02899604
      1.30000000	      0.32313818	      0.16203748	      0.03685451	      0.08727271	      0.01669359	      0.00961766	      0.01339047	      0.02036563	     -0.02649742	      0.01218339	      0.02909078	      0.04170036	      0.00262642	     -0.00675008	     -0.00772341	     -0.00253922
      1.31000000	     -0.69016117	      0.13376680	      0.03114893	      0.06350259	      0.02079777	      0.01462172	      0.01970068	      0.00679987	     -0.03448795	      0.02548107	      0.02728818	      0.02849095	      0.00673877	      0.00423018	     -0.00494937	      0.00836989
      1.32000000	     -1.25505280	     -0.04639217	     -0.01463394	      0.05750773	      0.02214249	      0.01447076	      0.01498743	      0.00507927	     -0.02432768	      0.02672671	      0.01046514	      0.01249980	      0.00613680	     -0.00038967	      0.00272890	      0.01482111
      1.33000000	     -0.30424103	     -0.13541165	     -0.04915091	      0.03901999	      0.02371614	      0.00537845	      0.00986497	      0.00460704	     -0.01744723	      0.01943500	     -0.00222740	      0.00173030	      0.00771235	     -0.01817561	      0.00886687	      0.01799510
      1.34000000	      0.05001082	     -0.25332984	     -0.02310344	      0.00767795	      0.02628970	      0.00514461	      0.00756585	      0.00207254	     -0.01160797	      0.01315623	     -0.00670331	      0.00132660	      0.01451132	     -0.03327051	     -0.00449189	      0.01833436
      1.35000000	     -0.15162851	     -0.29362616	      0.02922907	     -0.01715998	      0.02136197	      0.00796586	      0.00187668	     -0.00199564	     -0.00578533	      0.00622429	      0.00360613	      0.00432934	      0.01712449	     -0.03566299	     -0.03104151	      0.01493362
      1.36000000	     -0.28409511	     -0.13068414	      0.04572045	      0.01614873	      0.02180535	      0.00556197	     -0.00055277	     -0.00304244	     -0.00529997	      0.00295333	      0.02300072	     -0.00610436	      0.01661496	     -0.02756906	     -0.04371760	      0.00407471
      1.37000000	     -0.21129091	      0.02001401	      0.03135096	      0.04428898	      0.02953878	      0.00476115	      0.00116660	      0.00428178	      0.00267909	      0.00775427	      0.03190915	     -0.01115690	      0.01790475	     -0.01185714	     -0.02956984	     -0.00104054
      1.38000000	     -0.20762782	      0.09907319	      0.01160080	      0.03439749	      0.02659109	      0.01273306	      0.00495582	      0.01545299	      0.03927749	      0.01029090	      0.01973130	      0.00271834	      0.01947766	     -0.00244605	     -0.00553306	      0.00048712
